<svg width="16" height="16" viewBox="0 0 16 16" fill="none" xmlns="http://www.w3.org/2000/svg">
<path d="M2 4H3.33333H14" stroke="#0EF387" stroke-width="1.5" stroke-linecap="round" stroke-linejoin="round"/>
<path d="M12.6667 4.00004V13.3334C12.6667 13.687 12.5262 14.0261 12.2762 14.2762C12.0261 14.5262 11.687 14.6667 11.3333 14.6667H4.66668C4.31306 14.6667 3.97392 14.5262 3.72387 14.2762C3.47382 14.0261 3.33334 13.687 3.33334 13.3334V4.00004M5.33334 4.00004V2.66671C5.33334 2.31309 5.47382 1.97395 5.72387 1.7239C5.97392 1.47385 6.31306 1.33337 6.66668 1.33337H9.33335C9.68697 1.33337 10.0261 1.47385 10.2762 1.7239C10.5262 1.97395 10.6667 2.31309 10.6667 2.66671V4.00004" stroke="#0EF387" stroke-width="1.5" stroke-linecap="round" stroke-linejoin="round"/>
<path d="M6.66666 7.33337V11.3334" stroke="#0EF387" stroke-width="1.5" stroke-linecap="round" stroke-linejoin="round"/>
<path d="M9.33334 7.33337V11.3334" stroke="#0EF387" stroke-width="1.5" stroke-linecap="round" stroke-linejoin="round"/>
</svg>
