<svg width="38" height="38" viewBox="0 0 38 38" fill="none" xmlns="http://www.w3.org/2000/svg">
<path d="M34.7908 31.1719C32.7556 27.6001 29.5778 24.817 25.7687 23.2706C27.6629 21.85 29.0621 19.8693 29.7681 17.6093C30.4741 15.3493 30.4511 12.9244 29.7023 10.6782C28.9536 8.43193 27.5171 6.47822 25.5963 5.09378C23.6754 3.70934 21.3677 2.96436 19 2.96436C16.6323 2.96436 14.3245 3.70934 12.4037 5.09378C10.4829 6.47822 9.0464 8.43193 8.29766 10.6782C7.54891 12.9244 7.5259 15.3493 8.23188 17.6093C8.93787 19.8693 10.3371 21.85 12.2312 23.2706C8.42222 24.817 5.24435 27.6001 3.20921 31.1719C3.0831 31.3747 2.99905 31.6008 2.96206 31.8367C2.92506 32.0726 2.93588 32.3135 2.99386 32.5451C3.05184 32.7768 3.1558 32.9944 3.29956 33.185C3.44332 33.3757 3.62395 33.5355 3.83071 33.655C4.03746 33.7744 4.26613 33.8511 4.50311 33.8804C4.74009 33.9097 4.98054 33.8911 5.21017 33.8256C5.43981 33.7602 5.65394 33.6492 5.83983 33.4993C6.02572 33.3494 6.17958 33.1637 6.29226 32.9532C8.98194 28.3041 13.7319 25.5313 19 25.5313C24.268 25.5313 29.018 28.3056 31.7077 32.9532C31.9519 33.3458 32.3393 33.6282 32.7878 33.7404C33.2364 33.8527 33.711 33.7861 34.1114 33.5548C34.5118 33.3235 34.8065 32.9455 34.9333 32.5009C35.0601 32.0562 35.009 31.5796 34.7908 31.1719ZM11.2812 14.2501C11.2812 12.7234 11.7339 11.2311 12.5821 9.96175C13.4302 8.69241 14.6357 7.70308 16.0462 7.11886C17.4566 6.53465 19.0086 6.38179 20.5058 6.67962C22.0031 6.97745 23.3785 7.71259 24.458 8.79208C25.5375 9.87156 26.2726 11.2469 26.5704 12.7442C26.8683 14.2415 26.7154 15.7935 26.1312 17.2039C25.547 18.6143 24.5576 19.8198 23.2883 20.668C22.019 21.5161 20.5266 21.9688 19 21.9688C16.9536 21.9665 14.9917 21.1525 13.5446 19.7054C12.0976 18.2584 11.2836 16.2965 11.2812 14.2501Z" fill="#0EF387"/>
</svg>
